<?xml version="1.0" encoding="UTF-8"?>
<svg width="18px" height="18px" viewBox="0 0 18 18" version="1.1" xmlns="http://www.w3.org/2000/svg" xmlns:xlink="http://www.w3.org/1999/xlink">
    <!-- Generator: Sketch 52.6 (67491) - http://www.bohemiancoding.com/sketch -->
    <title>Date</title>
    <desc>Created with Sketch.</desc>
    <g id="Icons" stroke="none" stroke-width="1" fill="none" fill-rule="evenodd">
        <g transform="translate(-655.000000, -731.000000)" fill-rule="nonzero" id="Date">
            <g transform="translate(655.000000, 731.000000)">
                <rect id="Rectangle" fill="#FFFFFF" x="0" y="0" width="18" height="17"></rect>
                <path d="M0.625,17.0478 C0.279822031,17.0478 0,16.767978 0,16.4228 L0,4.6728 C0,4.32762203 0.279822031,4.0478 0.625,4.0478 L17.375,4.0478 C17.720178,4.0478 18,4.32762203 18,4.6728 L18,16.4228 C18,16.767978 17.720178,17.0478 17.375,17.0478 L0.625,17.0478 Z M16.75,15.7978 L16.75,5.2978 L1.25,5.2978 L1.25,15.7978 L16.75,15.7978 Z" id="Stroke-1" fill="#9B9B9B"></path>
                <path d="M3.1247,8.2452 C2.77952203,8.2452 2.4997,7.96537797 2.4997,7.6202 C2.4997,7.27502203 2.77952203,6.9952 3.1247,6.9952 L5.1877,6.9952 C5.53287797,6.9952 5.8127,7.27502203 5.8127,7.6202 C5.8127,7.96537797 5.53287797,8.2452 5.1877,8.2452 L3.1247,8.2452 Z" id="Stroke-3" fill="#9B9B9B"></path>
                <path d="M3.5309,0.625 C3.5309,0.279822031 3.81072203,-3.55271368e-15 4.1559,-3.55271368e-15 C4.50107797,-3.55271368e-15 4.7809,0.279822031 4.7809,0.625 L4.7809,2.006 C4.7809,2.35117797 4.50107797,2.631 4.1559,2.631 C3.81072203,2.631 3.5309,2.35117797 3.5309,2.006 L3.5309,0.625 Z" id="Stroke-4" fill="#9B9B9B"></path>
                <path d="M3.1247,11.2452 C2.77952203,11.2452 2.4997,10.965378 2.4997,10.6202 C2.4997,10.275022 2.77952203,9.9952 3.1247,9.9952 L5.1877,9.9952 C5.53287797,9.9952 5.8127,10.275022 5.8127,10.6202 C5.8127,10.965378 5.53287797,11.2452 5.1877,11.2452 L3.1247,11.2452 Z" id="Stroke-6" fill="#9B9B9B"></path>
                <path d="M7.9694,8.2452 C7.62422203,8.2452 7.3444,7.96537797 7.3444,7.6202 C7.3444,7.27502203 7.62422203,6.9952 7.9694,6.9952 L10.0314,6.9952 C10.376578,6.9952 10.6564,7.27502203 10.6564,7.6202 C10.6564,7.96537797 10.376578,8.2452 10.0314,8.2452 L7.9694,8.2452 Z" id="Stroke-7" fill="#9B9B9B"></path>
                <path d="M7.9694,11.2452 C7.62422203,11.2452 7.3444,10.965378 7.3444,10.6202 C7.3444,10.275022 7.62422203,9.9952 7.9694,9.9952 L10.0314,9.9952 C10.376578,9.9952 10.6564,10.275022 10.6564,10.6202 C10.6564,10.965378 10.376578,11.2452 10.0314,11.2452 L7.9694,11.2452 Z" id="Stroke-8" fill="#9B9B9B"></path>
                <path d="M7.9694,14.2452 C7.62422203,14.2452 7.3444,13.965378 7.3444,13.6202 C7.3444,13.275022 7.62422203,12.9952 7.9694,12.9952 L10.0314,12.9952 C10.376578,12.9952 10.6564,13.275022 10.6564,13.6202 C10.6564,13.965378 10.376578,14.2452 10.0314,14.2452 L7.9694,14.2452 Z" id="Stroke-9" fill="#9B9B9B"></path>
                <path d="M3.1247,14.2452 C2.77952203,14.2452 2.4997,13.965378 2.4997,13.6202 C2.4997,13.275022 2.77952203,12.9952 3.1247,12.9952 L5.1877,12.9952 C5.53287797,12.9952 5.8127,13.275022 5.8127,13.6202 C5.8127,13.965378 5.53287797,14.2452 5.1877,14.2452 L3.1247,14.2452 Z" id="Stroke-10" fill="#9B9B9B"></path>
                <path d="M12.8132,8.2452 C12.468022,8.2452 12.1882,7.96537797 12.1882,7.6202 C12.1882,7.27502203 12.468022,6.9952 12.8132,6.9952 L14.8752,6.9952 C15.220378,6.9952 15.5002,7.27502203 15.5002,7.6202 C15.5002,7.96537797 15.220378,8.2452 14.8752,8.2452 L12.8132,8.2452 Z" id="Stroke-11" fill="#9B9B9B"></path>
                <path d="M13.2194,0.625 C13.2194,0.279822031 13.499222,-3.55271368e-15 13.8444,-3.55271368e-15 C14.189578,-3.55271368e-15 14.4694,0.279822031 14.4694,0.625 L14.4694,2.006 C14.4694,2.35117797 14.189578,2.631 13.8444,2.631 C13.499222,2.631 13.2194,2.35117797 13.2194,2.006 L13.2194,0.625 Z" id="Stroke-12" fill="#9B9B9B"></path>
                <path d="M14.8747,9.9952 C15.219878,9.9952 15.4997,10.275022 15.4997,10.6202 C15.4997,10.965378 15.219878,11.2452 14.8747,11.2452 L12.8127,11.2452 C12.467522,11.2452 12.1877,10.965378 12.1877,10.6202 C12.1877,10.275022 12.467522,9.9952 12.8127,9.9952 L14.8747,9.9952 Z" id="Stroke-14" fill="#9B9B9B"></path>
                <path d="M12.8132,14.2452 C12.468022,14.2452 12.1882,13.965378 12.1882,13.6202 C12.1882,13.275022 12.468022,12.9952 12.8132,12.9952 L14.8752,12.9952 C15.220378,12.9952 15.5002,13.275022 15.5002,13.6202 C15.5002,13.965378 15.220378,14.2452 14.8752,14.2452 L12.8132,14.2452 Z" id="Stroke-15" fill="#9B9B9B"></path>
            </g>
        </g>
    </g>
</svg>